<mxfile host="65bd71144e">
    <diagram id="SI7tuCP2dQLLvXjDpIHG" name="Page-1">
        <mxGraphModel dx="1074" dy="3087" grid="1" gridSize="10" guides="1" tooltips="1" connect="1" arrows="1" fold="1" page="1" pageScale="1" pageWidth="827" pageHeight="1169" math="0" shadow="0">
            <root>
                <mxCell id="0"/>
                <mxCell id="1" parent="0"/>
                <mxCell id="314" value="" style="edgeStyle=none;html=1;startArrow=none;" parent="1" source="328" target="313" edge="1">
                    <mxGeometry relative="1" as="geometry"/>
                </mxCell>
                <mxCell id="331" value="" style="edgeStyle=none;html=1;" edge="1" parent="1" source="3" target="328">
                    <mxGeometry relative="1" as="geometry"/>
                </mxCell>
                <mxCell id="3" value="Start" style="strokeWidth=2;html=1;shape=mxgraph.flowchart.terminator;whiteSpace=wrap;" parent="1" vertex="1">
                    <mxGeometry x="375" y="-1169" width="100" height="60" as="geometry"/>
                </mxCell>
                <mxCell id="10" value="Stop" style="strokeWidth=2;html=1;shape=mxgraph.flowchart.terminator;whiteSpace=wrap;rounded=1;" parent="1" vertex="1">
                    <mxGeometry x="374" y="-420" width="100" height="60" as="geometry"/>
                </mxCell>
                <mxCell id="317" value="" style="edgeStyle=none;html=1;" parent="1" source="284" target="316" edge="1">
                    <mxGeometry relative="1" as="geometry"/>
                </mxCell>
                <mxCell id="324" style="edgeStyle=none;html=1;entryX=0.5;entryY=0;entryDx=0;entryDy=0;endArrow=classic;endFill=1;rounded=0;" parent="1" source="284" target="323" edge="1">
                    <mxGeometry relative="1" as="geometry">
                        <Array as="points">
                            <mxPoint x="560" y="-815"/>
                        </Array>
                    </mxGeometry>
                </mxCell>
                <mxCell id="284" value="for check in&amp;nbsp;&lt;br&gt;random_num" style="rhombus;whiteSpace=wrap;html=1;" parent="1" vertex="1">
                    <mxGeometry x="364" y="-870" width="120" height="110" as="geometry"/>
                </mxCell>
                <mxCell id="294" style="edgeStyle=none;html=1;entryX=0;entryY=0.5;entryDx=0;entryDy=0;rounded=0;exitX=0;exitY=0.5;exitDx=0;exitDy=0;" parent="1" source="311" target="284" edge="1">
                    <mxGeometry relative="1" as="geometry">
                        <Array as="points">
                            <mxPoint x="350" y="-520"/>
                            <mxPoint x="350" y="-815"/>
                        </Array>
                    </mxGeometry>
                </mxCell>
                <mxCell id="288" value="yes" style="text;html=1;strokeColor=none;fillColor=none;align=center;verticalAlign=middle;whiteSpace=wrap;rounded=0;" parent="1" vertex="1">
                    <mxGeometry x="424" y="-760" width="60" height="30" as="geometry"/>
                </mxCell>
                <mxCell id="293" value="no" style="text;html=1;strokeColor=none;fillColor=none;align=center;verticalAlign=middle;whiteSpace=wrap;rounded=0;" parent="1" vertex="1">
                    <mxGeometry x="450" y="-860" width="60" height="30" as="geometry"/>
                </mxCell>
                <mxCell id="311" value="smallest_num =&lt;br&gt;check" style="shape=parallelogram;perimeter=parallelogramPerimeter;whiteSpace=wrap;html=1;fixedSize=1;" parent="1" vertex="1">
                    <mxGeometry x="364" y="-550" width="120" height="60" as="geometry"/>
                </mxCell>
                <mxCell id="315" value="" style="edgeStyle=none;html=1;" parent="1" source="313" target="284" edge="1">
                    <mxGeometry relative="1" as="geometry"/>
                </mxCell>
                <mxCell id="313" value="smallest_num = random_number[0]" style="shape=parallelogram;perimeter=parallelogramPerimeter;whiteSpace=wrap;html=1;fixedSize=1;" parent="1" vertex="1">
                    <mxGeometry x="357" y="-970" width="136" height="60" as="geometry"/>
                </mxCell>
                <mxCell id="321" style="edgeStyle=none;html=1;entryX=0.5;entryY=0;entryDx=0;entryDy=0;" parent="1" source="316" target="311" edge="1">
                    <mxGeometry relative="1" as="geometry"/>
                </mxCell>
                <mxCell id="322" style="edgeStyle=none;html=1;endArrow=none;endFill=0;" parent="1" source="316" edge="1">
                    <mxGeometry relative="1" as="geometry">
                        <mxPoint x="560" y="-665" as="targetPoint"/>
                    </mxGeometry>
                </mxCell>
                <mxCell id="316" value="if check &amp;lt;&amp;nbsp;&lt;br&gt;smallest_num" style="rhombus;whiteSpace=wrap;html=1;" parent="1" vertex="1">
                    <mxGeometry x="364" y="-720" width="120" height="110" as="geometry"/>
                </mxCell>
                <mxCell id="318" value="no" style="text;html=1;strokeColor=none;fillColor=none;align=center;verticalAlign=middle;whiteSpace=wrap;rounded=0;" parent="1" vertex="1">
                    <mxGeometry x="440" y="-720" width="60" height="30" as="geometry"/>
                </mxCell>
                <mxCell id="319" value="yes" style="text;html=1;strokeColor=none;fillColor=none;align=center;verticalAlign=middle;whiteSpace=wrap;rounded=0;" parent="1" vertex="1">
                    <mxGeometry x="433" y="-630" width="60" height="30" as="geometry"/>
                </mxCell>
                <mxCell id="326" style="edgeStyle=none;rounded=0;html=1;entryX=0.5;entryY=0;entryDx=0;entryDy=0;entryPerimeter=0;endArrow=classic;endFill=1;" parent="1" source="323" target="10" edge="1">
                    <mxGeometry relative="1" as="geometry">
                        <Array as="points">
                            <mxPoint x="424" y="-450"/>
                        </Array>
                    </mxGeometry>
                </mxCell>
                <mxCell id="323" value="return&lt;br&gt;smallest_num" style="shape=parallelogram;perimeter=parallelogramPerimeter;whiteSpace=wrap;html=1;fixedSize=1;" parent="1" vertex="1">
                    <mxGeometry x="500" y="-480" width="120" height="60" as="geometry"/>
                </mxCell>
                <mxCell id="328" value="get&amp;nbsp;&lt;br&gt;&lt;span style=&quot;font-family: &amp;#34;helvetica&amp;#34;&quot;&gt;random_number[0]&lt;/span&gt;" style="shape=parallelogram;perimeter=parallelogramPerimeter;whiteSpace=wrap;html=1;fixedSize=1;" vertex="1" parent="1">
                    <mxGeometry x="357" y="-1070" width="136" height="60" as="geometry"/>
                </mxCell>
            </root>
        </mxGraphModel>
    </diagram>
</mxfile>